HIERARCHY
ROOT Hips
{
	OFFSET -0.001795 -0.223333 0.028219
	CHANNELS 6 Xposition Yposition Zposition Zrotation Yrotation Xrotation 
	JOINT LeftUpLeg
	{
		OFFSET 0.069520 -0.091406 -0.006815
		CHANNELS 3 Zrotation Yrotation Xrotation
		JOINT LeftLeg
		{
			OFFSET 0.034277 -0.375199 -0.004496
			CHANNELS 3 Zrotation Yrotation Xrotation
			JOINT LeftFoot
			{
				OFFSET -0.013596 -0.397961 -0.043693
				CHANNELS 3 Zrotation Yrotation Xrotation
				JOINT LeftToe
				{
					OFFSET 0.026358 -0.055791 0.119288
					CHANNELS 3 Zrotation Yrotation Xrotation
					End Site
					{
						OFFSET 0.000000 0.000000 0.000000
					}
				}
			}
		}
	}
	JOINT RightUpLeg
	{
		OFFSET -0.067670 -0.090522 -0.004320
		CHANNELS 3 Zrotation Yrotation Xrotation
		JOINT RightLeg
		{
			OFFSET -0.038290 -0.382569 -0.008850
			CHANNELS 3 Zrotation Yrotation Xrotation
			JOINT RightFoot
			{
				OFFSET 0.015774 -0.398415 -0.042312
				CHANNELS 3 Zrotation Yrotation Xrotation
				JOINT RightToe
				{
					OFFSET -0.025372 -0.048144 0.123348
					CHANNELS 3 Zrotation Yrotation Xrotation
					End Site
					{
						OFFSET 0.000000 0.000000 0.000000
					}
				}
			}
		}
	}
	JOINT Spine
	{
		OFFSET -0.002533 0.108963 -0.026696
		CHANNELS 3 Zrotation Yrotation Xrotation
		JOINT Spine1
		{
			OFFSET 0.005487 0.135180 0.001092
			CHANNELS 3 Zrotation Yrotation Xrotation
			JOINT Spine2
			{
				OFFSET 0.001457 0.052922 0.025425
				CHANNELS 3 Zrotation Yrotation Xrotation
				JOINT Neck
				{
					OFFSET -0.002778 0.213870 -0.042857
					CHANNELS 3 Zrotation Yrotation Xrotation
					JOINT Head
					{
						OFFSET 0.005152 0.064970 0.051349
						CHANNELS 3 Zrotation Yrotation Xrotation
						End Site
						{
							OFFSET 0.000000 0.000000 0.000000
						}
					}
				}
				JOINT LeftShoulder
				{
					OFFSET 0.078845 0.121749 -0.034090
					CHANNELS 3 Zrotation Yrotation Xrotation
					JOINT LeftArm
					{
						OFFSET 0.090977 0.030469 -0.008868
						CHANNELS 3 Zrotation Yrotation Xrotation
						JOINT LeftForeArm
						{
							OFFSET 0.259612 -0.012772 -0.027456
							CHANNELS 3 Zrotation Yrotation Xrotation
							JOINT LeftHand
							{
								OFFSET 0.249234 0.008986 -0.001171
								CHANNELS 3 Zrotation Yrotation Xrotation
								End Site
								{
									OFFSET 0.000000 0.000000 0.000000
								}
							}
						}
					}
				}
				JOINT RightShoulder
				{
					OFFSET -0.081759 0.118833 -0.038615
					CHANNELS 3 Zrotation Yrotation Xrotation
					JOINT RightArm
					{
						OFFSET -0.096012 0.032551 -0.009143
						CHANNELS 3 Zrotation Yrotation Xrotation
						JOINT RightForeArm
						{
							OFFSET -0.253742 -0.013329 -0.021401
							CHANNELS 3 Zrotation Yrotation Xrotation
							JOINT RightHand
							{
								OFFSET -0.255298 0.007772 -0.005559
								CHANNELS 3 Zrotation Yrotation Xrotation
								End Site
								{
									OFFSET 0.000000 0.000000 0.000000
								}
							}
						}
					}
				}
			}
		}
	}
}
MOTION
Frames: 15
Frame Time: 0.050000
0.000000 0.956425 0.000000 -1.204361 -1.505213 2.392429 4.308635 0.056737 2.198842 -2.668230 0.324527 -2.505085 5.901202 13.804729 10.553210 0.000000 0.000000 0.000000 -2.624033 -0.023962 1.404047 3.543360 -0.350719 1.080648 -7.165381 -18.386784 12.823329 0.000000 0.000000 0.000000 -3.046392 0.129974 -4.902262 4.669824 -0.645635 -22.463667 -0.001334 -0.208569 25.054385 0.262009 1.118550 -23.247603 0.000000 0.000000 0.000000 -4.363516 -2.918849 1.017089 -33.057525 -38.212659 4.358671 99.388523 -54.139188 -55.577020 0.000000 0.000000 0.000000 -6.589375 12.197242 3.750503 31.723136 40.427915 5.178318 -86.504755 46.959655 -39.466548 0.000000 0.000000 0.000000 
0.000466 0.956585 -0.000009 -1.456451 -1.372494 2.903815 4.691888 0.056881 2.599971 -3.035746 0.368977 -4.185711 6.278905 14.450035 10.821202 0.000000 0.000000 0.000000 -2.459878 0.005084 0.962051 3.206833 -0.320323 0.536555 -7.125776 -18.373449 14.134559 0.000000 0.000000 0.000000 -3.705331 0.131645 -6.025890 4.984993 -0.794787 -21.414687 0.551495 -0.377935 25.128698 0.599455 0.904799 -23.365519 0.000000 0.000000 0.000000 -7.394708 -1.649472 0.466607 -37.686947 -34.901061 4.275540 102.504070 -63.726295 -68.181651 0.000000 0.000000 0.000000 -3.652973 11.690252 3.795043 37.330332 36.949328 5.563518 -83.885184 57.646824 -47.281310 0.000000 0.000000 0.000000 
0.001173 0.955220 -0.000416 -1.460587 -2.691631 3.050472 4.568444 0.075333 2.578730 -3.208863 0.386059 -3.356959 7.293232 15.974642 10.359961 0.000000 0.000000 0.000000 -2.625512 0.018391 0.990119 2.630917 -0.268636 -0.506355 -6.326395 -17.152984 14.364368 0.000000 0.000000 0.000000 -2.890469 0.166105 -5.792800 4.512716 -0.635358 -22.253861 -0.304752 0.955498 26.813771 1.544587 0.417149 -23.502198 0.000000 0.000000 0.000000 -11.397547 0.968554 -0.895768 -39.805997 -28.758249 2.382179 100.349349 -78.274179 -81.390338 0.000000 0.000000 0.000000 0.951740 9.363785 3.265379 43.819311 32.063098 5.140788 -74.844397 70.174660 -50.657935 0.000000 0.000000 0.000000 
0.001813 0.955204 -0.000855 -1.479434 -2.488980 3.759551 4.672083 0.024473 1.890400 -3.334027 0.394480 -3.366103 8.184108 17.420975 10.438954 0.000000 0.000000 0.000000 -2.520084 0.068456 0.313470 2.793538 -0.284601 -0.534520 -6.768534 -17.924107 15.043427 0.000000 0.000000 0.000000 -3.383154 0.176776 -6.935779 4.654570 -0.720035 -21.454344 -0.352681 -0.055108 27.244197 1.213832 0.479315 -23.670836 0.000000 0.000000 0.000000 -13.572739 3.797345 -2.286878 -43.674911 -22.353789 0.511850 -23.066396 -83.952565 27.805272 0.000000 0.000000 0.000000 2.878217 8.220827 2.884161 49.829939 25.883456 3.519436 -34.985777 76.124812 -22.663496 0.000000 0.000000 0.000000 
0.002260 0.954885 -0.001639 -1.463638 -2.443609 4.100470 4.632654 0.001974 1.521156 -3.206128 0.380621 -3.002904 8.032480 17.185918 10.646221 0.000000 0.000000 0.000000 -2.079046 0.067814 0.117318 2.064109 -0.225806 -0.980183 -6.076546 -16.770705 15.018235 0.000000 0.000000 0.000000 -3.730790 0.172040 -7.266428 5.128045 -0.904007 -20.601479 -0.852026 0.222799 27.377146 1.627818 0.280467 -23.646178 0.000000 0.000000 0.000000 -15.725927 4.790194 -3.056088 -46.682794 -14.782849 -2.184980 -38.009028 -69.473479 32.500360 0.000000 0.000000 0.000000 6.304835 7.424742 2.648407 52.805193 18.771706 0.715369 7.558221 70.513242 9.627453 0.000000 0.000000 0.000000 
0.002566 0.954675 -0.002629 -1.459879 -2.123548 4.727255 4.726134 -0.050236 0.771362 -2.894804 0.352042 -3.154901 7.929066 17.018442 10.298133 0.000000 0.000000 0.000000 -2.081312 0.117149 -0.465841 2.100113 -0.227967 -0.890055 -6.047620 -16.625196 14.278741 0.000000 0.000000 0.000000 -3.712393 0.177152 -7.204395 4.877327 -0.845184 -20.366991 -1.011639 -0.278979 27.608472 1.109286 0.583244 -24.261792 0.000000 0.000000 0.000000 -17.243295 5.612355 -3.590453 -48.801343 -9.456089 -4.332139 -32.167431 -56.808398 22.185231 0.000000 0.000000 0.000000 8.005405 7.228989 2.555122 54.686884 13.995089 -1.407409 18.982264 58.354689 13.773356 0.000000 0.000000 0.000000 
0.002605 0.954693 -0.003793 -1.314785 -2.112220 4.999052 4.721385 -0.071905 0.404767 -2.890791 0.351278 -3.140934 8.030970 17.203616 10.812508 0.000000 0.000000 0.000000 -1.591928 0.135842 -0.873719 1.261391 -0.158913 -1.159483 -6.399302 -17.254109 14.640970 0.000000 0.000000 0.000000 -3.689288 0.174287 -6.709578 4.601750 -0.725641 -20.985141 -0.971521 -0.243647 28.345089 1.356810 0.477124 -24.975742 0.000000 0.000000 0.000000 -18.467713 5.504994 -3.651473 -50.746861 -5.902773 -5.961666 -25.624193 -43.638332 13.547379 0.000000 0.000000 0.000000 9.393923 6.738273 2.360183 56.217722 10.362393 -3.166350 21.257017 46.753977 11.494124 0.000000 0.000000 0.000000 
0.002554 0.955026 -0.005007 -1.275897 -1.301740 5.250909 4.859332 -0.117258 -0.222399 -2.549972 0.315545 -2.987952 7.320797 16.111657 10.803713 0.000000 0.000000 0.000000 -1.053001 0.143221 -1.143669 0.482151 -0.094043 -1.271146 -6.424205 -17.216175 14.579518 0.000000 0.000000 0.000000 -3.670173 0.159121 -5.768895 4.646050 -0.687861 -21.469863 -1.275227 -0.328790 28.786937 1.245608 0.605870 -25.045258 0.000000 0.000000 0.000000 -19.703955 5.392100 -3.819081 -51.760599 -4.564651 -6.657404 -20.354521 -33.154058 8.235601 0.000000 0.000000 0.000000 10.740424 5.908378 2.060177 57.891111 7.100230 -4.817649 19.324279 37.467810 8.252347 0.000000 0.000000 0.000000 
0.002505 0.955284 -0.006132 -1.208493 -1.005704 5.572733 5.328244 -0.179335 -1.254295 -3.100991 0.356789 -2.517009 7.370324 16.213733 10.868857 0.000000 0.000000 0.000000 -0.746941 0.184251 -1.667131 0.294236 -0.056496 -0.713045 -6.832285 -17.855936 14.097341 0.000000 0.000000 0.000000 -3.483915 0.159433 -5.362428 4.170764 -0.532745 -21.831898 -1.186369 -0.606554 29.159291 1.301987 0.578309 -25.544314 0.000000 0.000000 0.000000 -20.623188 5.472357 -3.941724 -52.838089 -3.201299 -7.386150 -17.562367 -27.320723 5.950027 0.000000 0.000000 0.000000 11.487804 5.381123 1.801391 59.755878 4.631753 -6.186127 15.415568 31.455786 5.633045 0.000000 0.000000 0.000000 
0.002373 0.955962 -0.007169 -1.380358 -1.123203 5.785931 5.569991 -0.198216 -1.619651 -2.797568 0.335566 -3.041515 7.477742 16.426919 11.633448 0.000000 0.000000 0.000000 -0.431526 0.219937 -2.112770 -0.026882 -0.016369 -0.475911 -6.735123 -17.729378 14.485373 0.000000 0.000000 0.000000 -3.351376 0.161737 -5.085607 4.434141 -0.586489 -22.085851 -1.257654 0.005684 29.635543 1.202198 0.724302 -25.515025 0.000000 0.000000 0.000000 -21.293579 5.838323 -4.380321 -53.293020 -2.750926 -7.643888 -15.870404 -23.813980 4.719748 0.000000 0.000000 0.000000 11.835694 5.014880 1.725475 61.251966 2.922504 -7.203141 12.971009 27.061723 4.195409 0.000000 0.000000 0.000000 
0.002344 0.955910 -0.007920 -1.319852 -0.894805 5.938663 5.588296 -0.213808 -1.880501 -2.687725 0.323888 -2.943712 7.302125 16.162222 11.568998 0.000000 0.000000 0.000000 -0.140850 0.268087 -2.652941 -0.083443 0.000897 -0.187768 -7.118100 -18.359412 14.487764 0.000000 0.000000 0.000000 -3.330963 0.155470 -4.626085 4.518879 -0.584968 -22.338091 -1.401528 -0.387527 29.941824 1.201571 0.668006 -25.438161 0.000000 0.000000 0.000000 -21.871087 6.356503 -4.682224 -53.327810 -1.879579 -8.065097 -15.510242 -23.375099 4.573229 0.000000 0.000000 0.000000 11.408346 4.788370 1.593304 61.896430 1.362678 -8.117987 12.211810 25.164145 3.675748 0.000000 0.000000 0.000000 
0.002307 0.955812 -0.008439 -1.453865 -0.797975 5.866978 5.585389 -0.213883 -1.884988 -2.463374 0.304030 -2.905722 7.485581 16.483922 12.012637 0.000000 0.000000 0.000000 -0.022958 0.286113 -2.847739 0.158018 -0.012882 0.083412 -6.879511 -17.952653 14.596525 0.000000 0.000000 0.000000 -3.152635 0.147515 -4.029852 4.584066 -0.585943 -22.577587 -1.252788 -0.134999 30.088199 1.502111 0.510316 -24.980843 0.000000 0.000000 0.000000 -22.343788 6.194154 -4.738479 -53.283053 -1.562399 -8.198060 -15.068111 -23.152916 4.414427 0.000000 0.000000 0.000000 11.538160 4.363271 1.449961 61.924747 0.386980 -8.628397 11.474504 24.603677 3.443025 0.000000 0.000000 0.000000 
0.002348 0.955487 -0.008837 -1.515213 -0.757176 5.856060 5.562188 -0.213767 -1.877904 -2.394404 0.298057 -2.909056 7.437556 16.380252 11.548887 0.000000 0.000000 0.000000 0.053350 0.306171 -3.054364 0.242481 -0.019522 0.138037 -6.810579 -17.828681 14.502210 0.000000 0.000000 0.000000 -3.192223 0.139257 -3.508568 4.647551 -0.569942 -23.043214 -1.125380 -0.248164 30.352873 1.637026 0.389054 -24.705657 0.000000 0.000000 0.000000 -22.815346 6.242940 -4.802154 -52.888116 -1.773082 -8.089564 -15.370346 -23.177418 4.489295 0.000000 0.000000 0.000000 11.429697 4.407688 1.465488 62.095038 -0.362075 -9.069669 11.675531 24.628136 3.487655 0.000000 0.000000 0.000000 
0.002334 0.955202 -0.009300 -1.671706 -0.984091 5.811035 5.777467 -0.208345 -1.796969 -2.514632 0.310013 -2.952720 7.797345 16.935585 11.659027 0.000000 0.000000 0.000000 -0.041301 0.332958 -3.312648 0.327057 -0.020783 0.334697 -6.472226 -17.292130 14.670702 0.000000 0.000000 0.000000 -3.220762 0.130952 -2.897269 4.916536 -0.603425 -23.552743 -1.004483 -0.203369 30.472140 1.933633 0.188197 -24.681390 0.000000 0.000000 0.000000 -22.856778 6.148945 -4.717854 -52.892379 -1.665711 -8.155215 -16.036759 -23.273469 4.659328 0.000000 0.000000 0.000000 11.619639 4.459712 1.471978 61.837765 -0.583401 -9.174269 11.835856 24.872865 3.555305 0.000000 0.000000 0.000000 
0.002294 0.955017 -0.009819 -1.768968 -1.194652 5.910539 5.822239 -0.205251 -1.741301 -2.550740 0.315923 -3.119848 7.879718 17.033995 11.374010 0.000000 0.000000 0.000000 -0.075870 0.354657 -3.529141 0.263572 -0.012413 0.375974 -6.165099 -16.798999 14.727729 0.000000 0.000000 0.000000 -3.157246 0.133145 -2.929876 5.093561 -0.647774 -23.541907 -0.978024 -0.191258 30.353399 2.079369 0.103091 -24.941884 0.000000 0.000000 0.000000 -22.642413 6.115679 -4.636909 -52.719751 -1.578281 -8.155165 -17.110039 -23.760375 5.005116 0.000000 0.000000 0.000000 11.479628 4.532083 1.482563 61.633504 -0.275985 -8.977958 12.104038 25.144474 3.646692 0.000000 0.000000 0.000000 
